<?xml version="1.0" encoding="utf-8"?>
<!-- Generator: Adobe Illustrator 23.0.2, SVG Export Plug-In . SVG Version: 6.00 Build 0)  -->
<svg version="1.1" id="图层_1" xmlns="http://www.w3.org/2000/svg" xmlns:xlink="http://www.w3.org/1999/xlink" x="0px" y="0px"
	 viewBox="0 0 746.4 775.2" style="enable-background:new 0 0 746.4 775.2;" xml:space="preserve">
<style type="text/css">
	.st0{fill:#E61E1D;}
	.st1{fill:#0A0F12;}
	.st2{fill:#FEFEFE;}
	.st3{fill:#E41C1D;}
	.st4{fill:#9A0704;}
	.st5{fill:#E41D1E;}
	.st6{fill:#E71B1D;}
</style>
<path class="st0" d="M341.4,228.6c0,0,29.7-5.9,61.9,0c0,0,13.4-54,54.5-67.2c0,0,26.3-7.4,31.5,6.3c0,0,0,6.3-6.2,6.7
	c-6.2,0.4-17-1.7-34.9,11c-17.9,12.6-29,40.9-30.1,49.1c0,0,36.4,16.9,49.9,40l1,1.8c4.6,0.4,10.5,1.3,17.2,3.6
	c5.9,2.1,10.7,4.6,14.3,6.9c0.9,4.7,1.8,9.4,2.7,14.1c-2,1.5-4,2.9-5.9,4.4c-0.6,3.3-1.3,6.7-1.9,10.1c-0.9,4.7-1.9,9.3-2.8,13.8
	c2.1,6.3,3.9,13.5,5.1,21.4c4.1,27.5-1.3,50.7-6.3,65.4c3.4,0.2,14.3,0.3,24.1-7.3c15.7-12.1,13.9-32.5,13.8-33.9
	c0.1,3.9,1.6,31.8,25.8,50.6c23.5,18.3,49.9,13.7,53.9,13c-8.2,6.4-15.7,10.7-21,13.5c-30.6,16.2-61.7,18.6-77.9,16.4
	c-1.7-0.2-8.2-1.2-16-2.6c-8.1-1.5-14.8-2.9-19.3-3.8c-4.5,10.5-9.1,20.9-13.6,31.4l-1.2,2.5c0,0-80.1,67.7-174.9,0l-13.4-33.9
	c0,0-97.3,30.1-145.5-36c8.6,1.2,20.8,1.7,34.7-1.8c33-8.3,51.2-32.9,56.5-40.8c0.5,3.9,2,11.1,7.3,18
	c10.4,13.5,26.6,14.6,29.3,14.7c0,0-15.5-59.4-3.3-84.9c0,0,13.9-69.2,76.2-96.3c0,0-9.2-58.1-65.4-60.8c0,0-7.5-1.9-6.2-6.8
	c1.3-5,8.4-6.6,8.4-6.6s21.2-5.2,38.6,8.6C302.4,169.1,332.1,188.1,341.4,228.6z"/>
<path class="st1" d="M240.4,285.9c0-0.4,0.1-0.9,0.3-1.3c0.7-1.4,3-4.5,9.8-5.1c8.9-0.8,66.9-10.2,115.7,3.3c0.2,0,0.4,0.1,0.5,0.1
	l9.6-0.1c0.1,0,0.3,0,0.4-0.1c4.2-1,73.2-16.8,124.9,0c0.6,0.2,1,0.6,1.2,1.2c0.6,1.7,1.7,6,1.4,16.1c0,0.8-0.4,1.5-1,2
	c-1.5,1.2-4.2,3.5-5,4c-1.1,0.7-1.5,34.8-24.8,49.8c-22.5,14.5-50.6,8.4-52.4,7.9c-0.1,0-0.1,0-0.2-0.1
	c-1.9-0.7-33.2-12.1-39.3-46.7c0-0.1,0-0.2-0.1-0.3c-0.8-2.1-9.6-25.5-19.7,0.1c0,0.1,0,0.1-0.1,0.2c-0.7,2.2-16.3,52.3-55.1,48.5
	c-0.1,0-0.2,0-0.3,0c-2.6,0.2-43.1,2.2-56.7-39c0,0,0-0.1,0-0.1c-0.3-1-4.9-17.1-4.9-18.9c0-1.3-2.2-3-3.5-3.9
	c-0.5-0.4-0.9-1-0.9-1.6V285.9z"/>
<path class="st1" d="M350.5,375.8c0,0,10.7,11.1,22.1,9.9c11.5-1.2,26.5-15.6,26.5-15.6s10.3-3.3,10.9,7.3
	c0.6,10.6-23.2,21.8-33.7,22.1c-10.5,0.3-27.9,0.9-38-14.9c0,0,0,0,0,0c-0.5-1.7-0.4-3.1-0.3-4c0.1-1,0.5-3.7,2.7-5.3
	c1-0.7,1.9-0.9,2.6-1C346.5,373.7,349.3,375.1,350.5,375.8z"/>
<path class="st2" d="M284.7,444.9c2.1,3,5.4,7,10.3,10.9c2.2,1.7,4,3.1,8.1,5.3c3.7,2,12.2,6.3,26.9,9.2c7.9,1.6,13.6,2,25.1,2.8
	c6.4,0.4,13.5,0.9,22.9,0.7c6.4-0.1,12.8-0.2,21.5-1.6c12.7-2,27.8-6.3,45.4-15.5c1.7-0.9,3.3-2,4.9-3.2c3.6-2.9,10.2-8.6,13.2-12.7
	c0.7-1,1.9-1.6,3.1-1.6c0.4,0,0.8,0.1,1.2,0.3c0,0,1.5,0.8,2.1,3.2c0.6,2.5-2.4,10.5-14,19.9c-4.4,3.6-11.2,8.4-20.6,12.2
	c-27.2,11.2-53.9,11.9-58.1,12c-9.7,0.3-32.5,0.4-56.3-7.3c-7.8-2.5-11.6-4.6-19.3-8.8c0,0-16.8-9.1-20.4-19c0-0.1-0.1-0.2-0.1-0.2
	c0-0.1,0-0.1-0.1-0.2c-0.3-0.9-1.2-5,0.4-6.2C282.8,443.9,284.4,444.3,284.7,444.9z"/>
<path class="st3" d="M208.5,242.2c-1.4,1.1-2.3,0-2.3,0s-4.7-18.9-10.5-24.4c-5.9-5.5-19.2-6.4-20.6-7.6c-1.5-1.2,0-2.5,0-2.5
	c16.7-4,20.7-7,24.7-13.1c3.2-5,5.9-15.5,6.8-19.2c0.4-1.4,2.5-1.4,2.7,0.1c0,0,0,0,0,0c0.7,8,4.7,19.8,4.7,19.8
	c1,2.4,5.3,5.5,5.3,5.5c11.1,5.9,18.4,5.5,19.6,6.5c0,0,0.5,0.3,0.5,0.9c0,0.5-0.4,0.9-0.9,1.1c0,0-17.4,3.8-22,9.7
	C211.9,224.9,208.5,242.2,208.5,242.2z"/>
<g>
	<path class="st4" d="M217.5,377.4c0,0,4,39-43.6,59.9c0,0,25.4,32.5,67.3,30.3c0,0-76.7,14.8-117.8-45L217.5,377.4z"/>
	<path class="st5" d="M127.9,223.8c0,0-59.1,17.7-67.6,99.2c0,0.1,0,0.2,0,0.3c-0.1,3.5-1.7,58.5,32.6,87.2c0,0,26.5,23.1,71.2,12.6
		c0.1,0,0.3-0.1,0.4-0.1c3.5-1.1,51.4-16.7,60.8-59.5c0,0,4.3-18.2-2.9-41c-8.6-27.2-28.2-43-34.6-48c-0.1-0.1-0.2-0.2-0.3-0.3
		c-0.5-0.4-1.1-0.7-1.7-0.8c-2-0.5-5.5-1.1-9.4,0.2c-2,0.7-4.2,1.9-6.2,3.8c-6.9,6.6-6,14.9-5.8,16.5c0,0.2,0.1,0.3,0.1,0.5
		c0.7,2.4,6.9,23.3,23.2,33.6c0.9,0.6,1.7,1.4,2,2.5c0.2,0.7,0.3,1.5-0.4,1.8c-1.6,0.7-20.4-5-29.2-18.9c-8.8-14-13.2-33.3-9.6-78.4
		c0,0,0.9-8.1-7-11.3S127.9,223.8,127.9,223.8z"/>
	<path class="st4" d="M239.3,412.4c0,0,7.4,29,0.6,55.4c0,0,20.6-1.8,31.8-6L254,415.9C254,415.9,246.8,415.7,239.3,412.4z"/>
	<path class="st2" d="M88.9,327c0,0-0.9,5.5-7.3,5.5s-9.5-5.1-7.8-13.2s3.7-27,15.5-44.2c0,0,5-8.9,8.5-9.5s2.2,3.3,2.2,3.3
		s-6.5,18.5-6.9,23.3C93.1,292.2,89.2,307.6,88.9,327z"/>
</g>
<path class="st3" d="M522.6,250.7c-1.1,0.9-1.8,0-1.8,0s-3.8-15-8.5-19.4c-4.7-4.4-15.3-5-16.5-6c-1.2-0.9,0-2,0-2
	c13.3-3.3,16.5-5.6,19.6-10.5c2.5-4,4.7-12.3,5.4-15.3c0.3-1.2,2-1.1,2.2,0c0,0,0,0,0,0c0.6,6.4,3.8,15.8,3.8,15.8
	c0.8,1.9,4.3,4.3,4.3,4.3c8.9,4.6,14.7,4.3,15.7,5.1c0,0,0.4,0.3,0.4,0.7c0,0.4-0.3,0.7-0.7,0.9c0,0-13.9,3.1-17.5,7.8
	C525.3,236.9,522.6,250.7,522.6,250.7z"/>
<path class="st3" d="M561.6,210.9c-0.8,0.7-1.4,0-1.4,0s-2.9-11.5-6.5-14.9c-3.6-3.3-11.7-3.9-12.6-4.6c-0.9-0.7,0-1.5,0-1.5
	c10.2-2.5,12.6-4.3,15-8.1c1.9-3.1,3.6-9.5,4.1-11.7c0.2-0.9,1.5-0.9,1.7,0c0,0,0,0,0,0c0.4,4.9,2.9,12.1,2.9,12.1
	c0.6,1.4,3.3,3.3,3.3,3.3c6.8,3.6,11.3,3.3,12,3.9c0,0,0.3,0.2,0.3,0.5c0,0.3-0.2,0.6-0.5,0.7c0,0-10.6,2.4-13.4,6
	C563.7,200.3,561.6,210.9,561.6,210.9z"/>
<g>
	<path class="st4" d="M528.9,377.4c0,0-4,39,43.6,59.9c0,0-26,32.4-67.9,30.2c0,0,77.3,14.9,118.4-44.9L528.9,377.4z"/>
	<path class="st5" d="M618.6,223.8c0,0,59.1,17.7,67.6,99.2c0,0.1,0,0.2,0,0.3c0.1,3.5,1.7,58.5-32.6,87.2c0,0-26.5,23.1-71.2,12.6
		c-0.1,0-0.3-0.1-0.4-0.1c-3.5-1.1-51.4-16.7-60.8-59.5c0,0-4.3-18.2,2.9-41c8.6-27.2,28.2-43,34.6-48c0.1-0.1,0.2-0.2,0.3-0.3
		c0.5-0.4,1.1-0.7,1.7-0.8c2-0.5,5.5-1.1,9.4,0.2c2,0.7,4.2,1.9,6.2,3.8c6.9,6.6,6,14.9,5.8,16.5c0,0.2-0.1,0.3-0.1,0.5
		c-0.7,2.4-6.9,23.3-23.2,33.6c-0.9,0.6-1.7,1.4-2,2.5c-0.2,0.7-0.3,1.5,0.4,1.8c1.6,0.7,20.4-5,29.2-18.9
		c8.8-14,13.2-33.3,9.6-78.4c0,0-0.9-8.1,7-11.3S618.6,223.8,618.6,223.8z"/>
	<path class="st4" d="M506,413.9c-1,5.1-1.8,10.8-2.2,16.9c-0.9,14.5,0.7,27.1,2.9,36.8c0,0-20.8-1.6-32-5.8l16.7-45.8
		c1.4,0.1,2.8,0.1,4.4,0C499.8,415.7,503.3,414.8,506,413.9z"/>
	<path class="st2" d="M657.5,327c0,0,0.9,5.5,7.3,5.5c6.4,0,9.5-5.1,7.8-13.2s-3.7-27-15.5-44.2c0,0-5-8.9-8.5-9.5
		c-3.5-0.7-2.2,3.3-2.2,3.3s6.5,18.5,6.9,23.3C653.3,292.2,657.2,307.6,657.5,327z"/>
</g>
<path class="st6" d="M294.9,519.8c-0.6-0.6-1.6-0.7-2.3-0.2c-4.9,3-23,14.5-32.3,27c-10.7,14.5,0,26.6,0,26.6s9,10.7,24.7,7.6
	c0.9-0.2,1.7-0.6,2.4-1.1c2.5-2,8.9-7.5,13.3-15.3c0,0,13.8-24,13.8-25C314.6,538.5,299.1,523.8,294.9,519.8z"/>
<path class="st6" d="M317.3,549.1c-5.8,10.2-11.6,20.5-17.5,30.7c-1.1,1.9-1.6,4-1.4,6.2c0.2,2.2,0.9,4.8,2.7,7.2
	c1.6,2.1,3.3,3.5,7,4.7c10.4,3.4,17.3,6.2,23.3,0c5.9-6.2,12.2-33.8,12-41.8c-0.2-7.2-20.8-7.6-25-7.6
	C317.9,548.5,317.5,548.7,317.3,549.1z"/>
<path class="st6" d="M449.1,522.2c1.2-1.1,3-1.3,4.5-0.5c6.2,3.8,22.5,14.6,31.1,26.3c10.7,14.5,0,26.6,0,26.6s-8.1,9.6-22.3,8
	c-2.4-0.3-4.6-1.3-6.4-2.8c-3.1-2.6-8-7.5-11.7-14c0,0-13.8-24-13.8-25C430.4,540,443.9,527.1,449.1,522.2z"/>
<path class="st6" d="M427.5,550c6.1,10.7,12.2,21.5,18.3,32.2c0.6,1.1,0.9,2.2,1,3.5c0,2.4-0.4,6-2.8,9.1c-1.6,2.1-3.2,3.4-6.9,4.6
	c-10.4,3.4-17.3,6.2-23.3,0c-5.9-6.2-12.2-33.8-12-41.8C401.9,549.5,427.5,550,427.5,550z"/>
<path class="st6" d="M348.2,558.4l-3.6,43.1c-0.1,0.8,0,1.5,0.3,2.2c0.9,2.3,4.1,6.8,14.5,10c13.3,4.1,25.4,0.7,27.3,0.1
	c0.2-0.1,0.3-0.1,0.5-0.2c1.5-0.7,9.2-4.6,11.6-10.9c2.8-6.9-7-59.1-7-59.1L348.2,558.4z"/>
<path class="st4" d="M289.5,509.5c0,0,29.1,29.7,84.6,29.5c55.5-0.2,81.1-29.5,81.1-29.5s5.2,21.1-27.9,41s-84.3,9.2-84.3,9.2
	S293.4,551.1,289.5,509.5z"/>
<path class="st2" d="M295.5,292.2l-7,16.6c-0.1,0.4-0.2,0.7-0.2,1.1c0,0.9,0.4,2.5,2.1,2.8c1.8,0.4,8.7,0.2,12.1,0.1
	c1.4,0,2.6-0.9,3.1-2.1l7.3-17.6c0.5-1.1-0.3-2.3-1.5-2.3h-13.7C296.8,290.7,295.9,291.3,295.5,292.2z"/>
<path class="st2" d="M321.1,292.8l-5.2,13.3c-0.1,0.3-0.2,0.6-0.2,0.9c0,0.7,0.3,2,1.6,2.3c1.3,0.3,6.5,0.2,9.2,0.1
	c1,0,1.9-0.7,2.3-1.7l5.5-14.1c0.4-0.9-0.2-1.9-1.2-1.9h-10.3C322.1,291.6,321.4,292.1,321.1,292.8z"/>
<path class="st2" d="M431.4,292.2l-7,16.6c-0.1,0.4-0.2,0.7-0.2,1.1c0,0.9,0.4,2.5,2.1,2.8c1.8,0.4,8.7,0.2,12.1,0.1
	c1.4,0,2.6-0.9,3.1-2.1l7.3-17.6c0.5-1.1-0.3-2.3-1.5-2.3h-13.7C432.6,290.7,431.8,291.3,431.4,292.2z"/>
<path class="st2" d="M457,292.8l-5.2,13.3c-0.1,0.3-0.2,0.6-0.2,0.9c0,0.7,0.3,2,1.6,2.3c1.3,0.3,6.5,0.2,9.2,0.1
	c1,0,1.9-0.7,2.3-1.7l5.5-14.1c0.4-0.9-0.2-1.9-1.2-1.9h-10.3C457.9,291.6,457.2,292.1,457,292.8z"/>
</svg>
